<?xml version="1.0" encoding="utf-8"?>
<!-- Generator: Adobe Illustrator 15.0.0, SVG Export Plug-In . SVG Version: 6.00 Build 0)  -->
<!DOCTYPE svg PUBLIC "-//W3C//DTD SVG 1.1//EN" "http://www.w3.org/Graphics/SVG/1.1/DTD/svg11.dtd">
<svg version="1.1" xmlns="http://www.w3.org/2000/svg" xmlns:xlink="http://www.w3.org/1999/xlink" x="0px" y="0px"
	 width="3044.5px" height="1152.5px" viewBox="0 0 3044.5 1152.5" enable-background="new 0 0 3044.5 1152.5" xml:space="preserve">
<g id="Roof">
	<polygon fill="none" stroke="#000000" stroke-linecap="round" stroke-linejoin="round" points="506.88,148.528 506.88,72.328 
		510.255,72.328 510.255,36.328 521.505,36.328 521.505,72.328 524.88,72.328 524.88,148.528 524.88,185.352 521.505,185.352 
		521.505,221.352 510.255,221.352 510.255,185.352 506.88,185.352 	"/>
	<polygon fill="none" stroke="#000000" stroke-linecap="round" stroke-linejoin="round" points="480.885,156.999 480.885,72.328 
		484.259,72.328 484.259,36.328 495.51,36.328 495.51,72.328 498.885,72.328 498.885,156.999 498.885,253.057 495.51,253.057 
		495.51,289.057 484.259,289.057 484.259,253.057 480.885,253.057 	"/>
	<polygon fill="none" stroke="#000000" stroke-linecap="round" stroke-linejoin="round" points="472.842,154.715 472.844,255.527 
		469.469,255.527 469.469,290.273 458.219,290.273 458.219,255.527 454.844,255.527 454.842,154.715 454.842,70.045 458.216,70.045 
		458.216,36.328 469.466,36.328 469.466,70.045 472.842,70.045 	"/>
	<polygon fill="none" stroke="#000000" stroke-linecap="round" stroke-linejoin="round" points="589.88,148.528 589.88,72.328 
		593.255,72.328 593.255,36.328 604.505,36.328 604.505,72.328 607.88,72.328 607.88,148.528 607.88,185.352 604.505,185.352 
		604.505,221.352 593.255,221.352 593.255,185.352 589.88,185.352 	"/>
	<polygon fill="none" stroke="#000000" stroke-linecap="round" stroke-linejoin="round" points="563.885,156.999 563.885,72.328 
		567.259,72.328 567.259,36.328 578.51,36.328 578.51,72.328 581.885,72.328 581.885,156.999 581.885,253.057 578.51,253.057 
		578.51,289.057 567.259,289.057 567.259,253.057 563.885,253.057 	"/>
	<polygon fill="none" stroke="#000000" stroke-linecap="round" stroke-linejoin="round" points="555.842,154.715 555.844,255.527 
		552.469,255.527 552.469,290.273 541.219,290.273 541.219,255.527 537.844,255.527 537.842,154.715 537.842,70.045 541.216,70.045 
		541.216,36.328 552.466,36.328 552.466,70.045 555.842,70.045 	"/>
	<polygon fill="none" stroke="#000000" stroke-linecap="round" stroke-linejoin="round" points="222.616,1085.507 146.415,1085.507 
		146.415,1088.882 110.415,1088.882 110.415,1100.132 146.415,1100.132 146.415,1103.507 222.616,1103.507 259.44,1103.507 
		259.44,1100.132 295.44,1100.132 295.44,1088.882 259.44,1088.882 259.44,1085.507 	"/>
	<polygon fill="none" stroke="#000000" stroke-linecap="round" stroke-linejoin="round" points="231.086,1059.512 146.415,1059.512 
		146.415,1062.886 110.415,1062.886 110.415,1074.137 146.415,1074.137 146.415,1077.512 231.086,1077.512 327.145,1077.512 
		327.145,1074.137 363.145,1074.137 363.145,1062.886 327.145,1062.886 327.145,1059.512 	"/>
	<polygon fill="none" stroke="#000000" stroke-linecap="round" stroke-linejoin="round" points="228.803,1051.469 329.615,1051.471 
		329.615,1048.096 364.361,1048.096 364.361,1036.846 329.615,1036.846 329.615,1033.471 228.803,1033.469 144.134,1033.469 
		144.134,1036.843 110.415,1036.843 110.415,1048.093 144.134,1048.093 144.134,1051.469 	"/>
	<polygon fill="none" stroke="#000000" stroke-linecap="round" stroke-linejoin="round" points="498.458,1086.006 422.257,1086.006 
		422.257,1089.381 386.257,1089.381 386.257,1100.631 422.257,1100.631 422.257,1104.006 498.458,1104.006 535.282,1104.006 
		535.282,1100.631 571.282,1100.631 571.282,1089.381 535.282,1089.381 535.282,1086.006 	"/>
	<polygon fill="none" stroke="#000000" stroke-linecap="round" stroke-linejoin="round" points="506.929,1060.011 422.257,1060.011 
		422.257,1063.385 386.257,1063.385 386.257,1074.636 422.257,1074.636 422.257,1078.011 506.929,1078.011 602.987,1078.011 
		602.987,1074.636 638.987,1074.636 638.987,1063.385 602.987,1063.385 602.987,1060.011 	"/>
	<polygon fill="none" stroke="#000000" stroke-linecap="round" stroke-linejoin="round" points="504.646,1051.968 605.457,1051.97 
		605.457,1048.595 640.203,1048.595 640.203,1037.345 605.457,1037.345 605.457,1033.97 504.646,1033.968 419.976,1033.968 
		419.976,1037.342 386.257,1037.342 386.257,1048.592 419.976,1048.592 419.976,1051.968 	"/>
</g>
<g id="Arrows">
</g>
<g id="Model_Pieces::Floor_Plates">
	<g>
		<polygon fill="none" stroke="#000000" stroke-linecap="round" stroke-linejoin="round" points="1696.573,794.184 1318.9,794.111 
			1318.91,651.34 1350.41,651.303 1350.41,632.574 1318.902,632.637 1318.902,499.164 1350.41,499.14 1350.41,480.412 
			1318.902,480.437 1318.902,347.028 1350.41,347.003 1350.41,328.275 1318.902,328.3 1318.902,347.028 1167.375,347.028 
			1167.393,33.392 1834.625,33.392 1808.718,176.164 1786.061,176.164 1786.061,194.892 1805.319,194.892 1781.111,328.3 
			1758.455,328.3 1758.455,347.028 1777.713,347.028 1753.505,480.437 1730.849,480.437 1730.849,499.164 1750.106,499.164 
			1725.898,632.573 1703.242,632.573 1703.242,651.301 1722.475,651.301 		"/>
		
			<rect x="1318.942" y="176.164" fill="none" stroke="#000000" stroke-linecap="round" stroke-linejoin="round" width="31.492" height="18.703"/>
	</g>
	<g>
		<polygon fill="none" stroke="#000000" stroke-linecap="round" stroke-linejoin="round" points="2443.362,632.573 
			2420.705,632.573 2420.705,651.301 2439.965,651.301 2414.037,794.184 2113.516,794.124 2113.525,651.304 2145.029,651.292 
			2145.029,632.564 2113.525,632.575 2113.535,499.166 2145.039,499.156 2145.039,480.428 2113.535,480.438 2113.544,347.03 
			2145.049,347.02 2145.049,328.292 2113.544,328.302 2113.549,194.908 2145.058,194.883 2145.058,176.155 2113.554,176.166 
			2113.554,194.894 1884.848,194.892 1884.855,33.392 2552.088,33.392 2526.182,176.164 2503.524,176.164 2503.524,194.892 
			2522.783,194.892 2498.574,328.3 2475.918,328.3 2475.918,347.028 2495.177,347.028 2470.969,480.437 2448.312,480.437 
			2448.312,499.164 2467.57,499.164 		"/>
	</g>
	<polygon fill="none" stroke="#000000" stroke-linecap="round" stroke-linejoin="round" points="2997.805,1092.631 
		2997.804,921.789 2817.895,921.789 2817.901,940.492 2786.401,940.492 2786.395,921.789 2817.895,921.789 2817.901,788.355 
		2786.401,788.355 2786.395,769.652 2817.895,769.652 2817.838,636.156 2786.401,636.156 2786.395,617.453 2817.895,617.453 
		2817.771,474.607 2517.382,474.57 2403.734,1092.631 	"/>
	<g>
		
			<rect x="1889.577" y="254.125" fill="none" stroke="#000000" stroke-linecap="round" stroke-linejoin="round" width="168.979" height="465.75"/>
		
			<rect x="1944.223" y="453.387" fill="none" stroke="#000000" stroke-linecap="round" stroke-linejoin="round" width="59.688" height="67.226"/>
	</g>
	<g>
		
			<rect x="766.544" y="567.967" transform="matrix(-0.2891 0.9573 -0.9573 -0.2891 1622.8219 116.2924)" fill="none" stroke="#000000" stroke-linecap="round" stroke-linejoin="round" width="3.375" height="185.482"/>
		
			<rect x="966.847" y="696.252" fill="none" stroke="#000000" stroke-linecap="round" stroke-linejoin="round" width="113.024" height="3.376"/>
		
			<rect x="388.887" y="619.071" fill="none" stroke="#000000" stroke-linecap="round" stroke-linejoin="round" width="180.658" height="3.375"/>
		<polygon fill="none" stroke="#000000" stroke-linecap="round" stroke-linejoin="round" points="1115.871,707.569 1115.871,688.31 
			930.847,688.31 930.847,682.161 891.472,682.168 891.472,688.31 644.991,613.849 644.991,605.009 605.616,605.009 605.616,611.13 
			352.887,611.13 352.887,605.009 322.512,605.009 322.512,614.009 325.887,614.009 325.887,619.071 340.512,619.071 
			340.512,614.009 343.887,614.009 343.887,627.509 340.512,627.509 340.512,622.446 325.887,622.446 325.887,627.509 
			322.512,627.509 322.512,636.511 352.887,636.509 352.887,630.388 605.616,630.388 605.616,636.518 644.991,636.509 
			644.991,633.106 891.472,707.569 891.472,713.661 930.847,713.661 930.847,707.568 		"/>
		<polygon fill="none" stroke="#000000" stroke-linecap="round" stroke-linejoin="round" points="614.616,627.509 617.991,627.509 
			617.991,622.446 632.616,622.446 632.616,627.509 635.991,627.509 635.991,614.009 632.616,614.009 632.616,619.071 
			617.991,619.071 617.991,614.009 614.616,614.009 		"/>
		<polygon fill="none" stroke="#000000" stroke-linecap="round" stroke-linejoin="round" points="900.472,704.661 903.847,704.661 
			903.847,699.598 918.472,699.598 918.472,704.661 921.847,704.661 921.847,691.161 918.472,691.161 918.472,696.224 
			903.847,696.224 903.847,691.161 900.472,691.161 		"/>
	</g>
	<g>
		
			<rect x="766.544" y="616.967" transform="matrix(-0.2891 0.9573 -0.9573 -0.2891 1669.7295 179.4583)" fill="none" stroke="#000000" stroke-linecap="round" stroke-linejoin="round" width="3.375" height="185.482"/>
		
			<rect x="966.847" y="745.252" fill="none" stroke="#000000" stroke-linecap="round" stroke-linejoin="round" width="113.024" height="3.376"/>
		
			<rect x="388.887" y="668.071" fill="none" stroke="#000000" stroke-linecap="round" stroke-linejoin="round" width="180.658" height="3.375"/>
		<polygon fill="none" stroke="#000000" stroke-linecap="round" stroke-linejoin="round" points="1115.871,756.569 1115.871,737.31 
			930.847,737.31 930.847,731.161 891.472,731.168 891.472,737.31 644.991,662.849 644.991,654.009 605.616,654.009 605.616,660.13 
			352.887,660.13 352.887,654.009 322.512,654.009 322.512,663.009 325.887,663.009 325.887,668.071 340.512,668.071 
			340.512,663.009 343.887,663.009 343.887,676.509 340.512,676.509 340.512,671.446 325.887,671.446 325.887,676.509 
			322.512,676.509 322.512,685.511 352.887,685.509 352.887,679.388 605.616,679.388 605.616,685.518 644.991,685.509 
			644.991,682.106 891.472,756.569 891.472,762.661 930.847,762.661 930.847,756.568 		"/>
		<polygon fill="none" stroke="#000000" stroke-linecap="round" stroke-linejoin="round" points="614.616,676.509 617.991,676.509 
			617.991,671.446 632.616,671.446 632.616,676.509 635.991,676.509 635.991,663.009 632.616,663.009 632.616,668.071 
			617.991,668.071 617.991,663.009 614.616,663.009 		"/>
		<polygon fill="none" stroke="#000000" stroke-linecap="round" stroke-linejoin="round" points="900.472,753.661 903.847,753.661 
			903.847,748.598 918.472,748.598 918.472,753.661 921.847,753.661 921.847,740.161 918.472,740.161 918.472,745.224 
			903.847,745.224 903.847,740.161 900.472,740.161 		"/>
	</g>
	<polygon fill="none" stroke="#000000" stroke-linecap="round" stroke-linejoin="round" points="643.103,411.806 643.103,423.056 
		687.613,423.056 687.613,426.431 759.613,426.431 759.613,423.056 811.117,423.056 811.117,426.431 883.117,426.431 
		883.117,423.056 955.487,423.056 955.487,411.806 	"/>
	<g>
		
			<rect x="643.103" y="385.355" fill="none" stroke="#000000" stroke-linecap="round" stroke-linejoin="round" width="320.866" height="11.995"/>
		
			<rect x="809.497" y="389.648" fill="none" stroke="#000000" stroke-linecap="round" stroke-linejoin="round" width="72" height="3.376"/>
		
			<rect x="687.613" y="389.648" fill="none" stroke="#000000" stroke-linecap="round" stroke-linejoin="round" width="72" height="3.376"/>
	</g>
	<g>
		
			<rect x="643.103" y="333.767" fill="none" stroke="#000000" stroke-linecap="round" stroke-linejoin="round" width="348.473" height="11.997"/>
		
			<rect x="809.497" y="338.062" fill="none" stroke="#000000" stroke-linecap="round" stroke-linejoin="round" width="72" height="3.375"/>
		
			<rect x="687.613" y="338.062" fill="none" stroke="#000000" stroke-linecap="round" stroke-linejoin="round" width="72" height="3.375"/>
	</g>
	<polygon fill="none" stroke="#000000" stroke-linecap="round" stroke-linejoin="round" points="643.103,359.005 643.103,370.255 
		687.608,370.255 687.608,373.63 759.608,373.63 759.608,370.255 811.117,370.255 811.117,373.63 883.117,373.63 883.117,370.255 
		983.094,370.255 983.094,359.005 	"/>
	<polygon fill="none" stroke="#000000" stroke-linecap="round" stroke-linejoin="round" points="643.103,307.854 643.103,319.104 
		687.608,319.104 687.608,322.479 759.608,322.479 759.608,319.104 811.117,319.104 811.117,322.479 883.117,322.479 
		883.117,319.104 1010.7,319.104 1010.7,307.854 	"/>
	<polygon fill="none" stroke="#000000" stroke-linecap="round" stroke-linejoin="round" points="643.103,255.287 643.103,266.536 
		687.608,266.536 687.608,269.912 759.608,269.912 759.608,266.536 811.117,266.536 811.117,269.912 883.117,269.912 
		883.117,266.536 1038.307,266.536 1038.307,255.287 	"/>
	<g>
		
			<rect x="809.497" y="285.927" fill="none" stroke="#000000" stroke-linecap="round" stroke-linejoin="round" width="72" height="3.375"/>
		
			<rect x="687.613" y="285.927" fill="none" stroke="#000000" stroke-linecap="round" stroke-linejoin="round" width="72" height="3.375"/>
		
			<rect x="643.103" y="281.633" fill="none" stroke="#000000" stroke-linecap="round" stroke-linejoin="round" width="376.079" height="11.997"/>
	</g>
	<g>
		
			<rect x="809.497" y="441.669" fill="none" stroke="#000000" stroke-linecap="round" stroke-linejoin="round" width="72" height="3.376"/>
		
			<rect x="687.613" y="441.669" fill="none" stroke="#000000" stroke-linecap="round" stroke-linejoin="round" width="72" height="3.376"/>
		
			<rect x="643.103" y="437.376" fill="none" stroke="#000000" stroke-linecap="round" stroke-linejoin="round" width="293.127" height="11.996"/>
	</g>
	<g>
		
			<rect x="888.444" y="66.072" fill="none" stroke="#000000" stroke-linecap="round" stroke-linejoin="round" width="72" height="3.376"/>
		
			<rect x="764.941" y="66.072" fill="none" stroke="#000000" stroke-linecap="round" stroke-linejoin="round" width="72" height="3.376"/>
		
			<rect x="643.283" y="61.798" fill="none" stroke="#000000" stroke-linecap="round" stroke-linejoin="round" width="453.226" height="11.924"/>
	</g>
	<g>
		
			<rect x="888.444" y="170.574" fill="none" stroke="#000000" stroke-linecap="round" stroke-linejoin="round" width="72" height="3.376"/>
		
			<rect x="764.941" y="170.574" fill="none" stroke="#000000" stroke-linecap="round" stroke-linejoin="round" width="72" height="3.376"/>
		
			<rect x="643.283" y="166.3" fill="none" stroke="#000000" stroke-linecap="round" stroke-linejoin="round" width="398.014" height="11.924"/>
	</g>
	<g>
		
			<rect x="888.444" y="117.827" fill="none" stroke="#000000" stroke-linecap="round" stroke-linejoin="round" width="72" height="3.376"/>
		
			<rect x="764.941" y="117.827" fill="none" stroke="#000000" stroke-linecap="round" stroke-linejoin="round" width="72" height="3.376"/>
		
			<rect x="643.283" y="113.553" fill="none" stroke="#000000" stroke-linecap="round" stroke-linejoin="round" width="425.619" height="11.923"/>
	</g>
	<g>
		
			<rect x="888.444" y="222.177" fill="none" stroke="#000000" stroke-linecap="round" stroke-linejoin="round" width="72" height="3.377"/>
		
			<rect x="764.941" y="222.177" fill="none" stroke="#000000" stroke-linecap="round" stroke-linejoin="round" width="72" height="3.377"/>
		
			<rect x="643.283" y="217.904" fill="none" stroke="#000000" stroke-linecap="round" stroke-linejoin="round" width="370.274" height="11.924"/>
	</g>
	<path fill="none" stroke="#000000" stroke-linecap="round" stroke-linejoin="round" d="M643.283,191.367c0,3.75,0,7.5,0,11.25
		c40.553,0,81.106,0,121.658,0c0,1.125,0,2.25,0,3.375c24,0,48,0,72,0c0-1.125,0-2.25,0-3.375c17.168,0,34.335,0,51.503,0
		c0,1.125,0,2.25,0,3.375c24,0,48,0,72,0c0-1.125,0-2.25,0-3.375c24.124,0,48.247,0,72.371,0c0-3.75,0-7.5,0-11.25
		C902.972,191.367,773.127,191.367,643.283,191.367z"/>
	<path fill="none" stroke="#000000" stroke-linecap="round" stroke-linejoin="round" d="M643.283,140.259c0,3.75,0,7.5,0,11.25
		c40.553-0.001,81.106-0.001,121.658-0.001c0,1.125,0,2.25,0,3.375c24,0,48,0,72,0c0-1.125,0-2.25,0-3.375
		c17.168,0,34.335,0,51.503,0c0,1.125,0,2.25,0,3.375c24,0,48,0,72,0c0-1.125,0-2.25,0-3.375c33.326,0,66.651,0,99.978,0
		c0-3.75,0-7.5,0-11.25C921.375,140.259,782.329,140.259,643.283,140.259z"/>
	<path fill="none" stroke="#000000" stroke-linecap="round" stroke-linejoin="round" d="M643.283,87.245c0,3.75,0,7.5,0,11.25
		c40.553,0,81.105,0,121.657,0c0,1.125,0,2.25,0,3.375c24,0,48,0,72,0c0-1.125,0-2.25,0-3.375c17.169,0,34.335,0,51.503,0
		c0,1.125,0,2.25,0,3.375c24,0,48,0,72,0c0-1.125,0-2.25,0-3.375c42.527,0,85.057,0,127.584,0c0-3.75,0-7.5,0-11.25
		C939.779,87.245,791.531,87.245,643.283,87.245z"/>
	<path fill="none" stroke="#000000" stroke-linecap="round" stroke-linejoin="round" d="M643.283,35.535c0,3.75,0,7.5,0,11.25
		c40.553,0,81.106,0,121.658,0c0,1.125,0,2.25,0,3.375c24,0,48,0,72,0c0-1.125,0-2.25,0-3.375c17.168,0,34.335,0,51.503,0
		c0,1.125,0,2.25,0,3.375c24,0,48,0,72,0c0-1.125,0-2.25,0-3.375c51.73,0,103.46,0,155.189,0c0-3.75,0-7.5,0-11.25
		C958.184,35.535,800.733,35.535,643.283,35.535z"/>
	<polygon fill="none" stroke="#000000" stroke-linecap="round" stroke-linejoin="round" points="385.946,36 374.696,36 
		374.696,157.658 371.321,157.658 371.321,229.658 374.696,229.658 374.696,281.162 371.321,281.162 371.321,353.162 
		374.696,353.162 374.696,425.531 389.321,425.531 389.321,281.162 385.946,281.162 	"/>
	<g>
		
			<rect x="352.532" y="157.658" fill="none" stroke="#000000" stroke-linecap="round" stroke-linejoin="round" width="3.375" height="72"/>
		
			<rect x="352.532" y="281.162" fill="none" stroke="#000000" stroke-linecap="round" stroke-linejoin="round" width="3.375" height="72"/>
		
			<rect x="348.258" y="36" fill="none" stroke="#000000" stroke-linecap="round" stroke-linejoin="round" width="11.923" height="389.531"/>
	</g>
	<polygon fill="none" stroke="#000000" stroke-linecap="round" stroke-linejoin="round" points="439.946,36 428.696,36 
		428.696,157.658 425.321,157.658 425.321,229.658 428.696,229.658 428.696,281.162 425.321,281.162 425.321,353.162 
		428.696,353.162 428.696,425.531 443.321,425.531 443.321,281.162 439.946,281.162 	"/>
	<g>
		
			<rect x="406.532" y="157.658" fill="none" stroke="#000000" stroke-linecap="round" stroke-linejoin="round" width="3.375" height="72"/>
		
			<rect x="406.532" y="281.162" fill="none" stroke="#000000" stroke-linecap="round" stroke-linejoin="round" width="3.375" height="72"/>
		
			<rect x="402.258" y="36" fill="none" stroke="#000000" stroke-linecap="round" stroke-linejoin="round" width="11.923" height="389.531"/>
	</g>
	<g>
		
			<rect x="126.905" y="48.375" fill="none" stroke="#000000" stroke-linecap="round" stroke-linejoin="round" width="3.375" height="11.25"/>
		<polygon fill="none" stroke="#000000" stroke-linecap="round" stroke-linejoin="round" points="122.968,221.025 122.968,361.23 
			122.968,397.23 119.593,397.23 119.593,434.056 119.593,510.256 122.968,510.256 122.968,546.256 134.218,546.256 
			134.218,510.256 137.593,510.256 137.593,434.056 137.593,397.23 134.218,397.23 134.218,361.23 134.218,221.025 134.218,185.025 
			137.593,185.025 137.593,108.825 137.593,72 134.218,72 134.218,36 122.968,36 122.968,72 119.593,72 119.593,108.825 
			119.593,185.025 122.968,185.025 		"/>
	</g>
	<g>
		
			<rect x="93.07" y="72" fill="none" stroke="#000000" stroke-linecap="round" stroke-linejoin="round" width="3.375" height="113.025"/>
		
			<rect x="93.07" y="397.23" fill="none" stroke="#000000" stroke-linecap="round" stroke-linejoin="round" width="3.375" height="113.025"/>
		
			<rect x="85.129" y="36" fill="none" stroke="#000000" stroke-linecap="round" stroke-linejoin="round" width="19.259" height="510.256"/>
	</g>
	<g>
		
			<rect x="193.905" y="48.375" fill="none" stroke="#000000" stroke-linecap="round" stroke-linejoin="round" width="3.375" height="11.25"/>
		<polygon fill="none" stroke="#000000" stroke-linecap="round" stroke-linejoin="round" points="189.968,221.025 189.968,361.23 
			189.968,397.23 186.593,397.23 186.593,434.056 186.593,510.256 189.968,510.256 189.968,546.256 201.218,546.256 
			201.218,510.256 204.593,510.256 204.593,434.056 204.593,397.23 201.218,397.23 201.218,361.23 201.218,221.025 201.218,185.025 
			204.593,185.025 204.593,108.825 204.593,72 201.218,72 201.218,36 189.968,36 189.968,72 186.593,72 186.593,108.825 
			186.593,185.025 189.968,185.025 		"/>
	</g>
	<g>
		
			<rect x="160.07" y="72" fill="none" stroke="#000000" stroke-linecap="round" stroke-linejoin="round" width="3.375" height="113.025"/>
		
			<rect x="160.07" y="397.23" fill="none" stroke="#000000" stroke-linecap="round" stroke-linejoin="round" width="3.375" height="113.025"/>
		
			<rect x="152.129" y="36" fill="none" stroke="#000000" stroke-linecap="round" stroke-linejoin="round" width="19.259" height="510.256"/>
	</g>
	<g>
		
			<rect x="259.905" y="48.375" fill="none" stroke="#000000" stroke-linecap="round" stroke-linejoin="round" width="3.375" height="11.25"/>
		<polygon fill="none" stroke="#000000" stroke-linecap="round" stroke-linejoin="round" points="255.968,221.025 255.968,361.23 
			255.968,397.23 252.593,397.23 252.593,434.056 252.593,510.256 255.968,510.256 255.968,546.256 267.218,546.256 
			267.218,510.256 270.593,510.256 270.593,434.056 270.593,397.23 267.218,397.23 267.218,361.23 267.218,221.025 267.218,185.025 
			270.593,185.025 270.593,108.825 270.593,72 267.218,72 267.218,36 255.968,36 255.968,72 252.593,72 252.593,108.825 
			252.593,185.025 255.968,185.025 		"/>
	</g>
	<g>
		
			<rect x="226.07" y="72" fill="none" stroke="#000000" stroke-linecap="round" stroke-linejoin="round" width="3.375" height="113.025"/>
		
			<rect x="226.07" y="397.23" fill="none" stroke="#000000" stroke-linecap="round" stroke-linejoin="round" width="3.375" height="113.025"/>
		
			<rect x="218.129" y="36" fill="none" stroke="#000000" stroke-linecap="round" stroke-linejoin="round" width="19.259" height="510.256"/>
	</g>
	<g>
		
			<rect x="326.905" y="48.375" fill="none" stroke="#000000" stroke-linecap="round" stroke-linejoin="round" width="3.375" height="11.25"/>
		<polygon fill="none" stroke="#000000" stroke-linecap="round" stroke-linejoin="round" points="322.968,221.025 322.968,361.23 
			322.968,397.23 319.593,397.23 319.593,434.056 319.593,510.256 322.968,510.256 322.968,546.256 334.218,546.256 
			334.218,510.256 337.593,510.256 337.593,434.056 337.593,397.23 334.218,397.23 334.218,361.23 334.218,221.025 334.218,185.025 
			337.593,185.025 337.593,108.825 337.593,72 334.218,72 334.218,36 322.968,36 322.968,72 319.593,72 319.593,108.825 
			319.593,185.025 322.968,185.025 		"/>
	</g>
	<g>
		
			<rect x="293.07" y="72" fill="none" stroke="#000000" stroke-linecap="round" stroke-linejoin="round" width="3.375" height="113.025"/>
		
			<rect x="293.07" y="397.23" fill="none" stroke="#000000" stroke-linecap="round" stroke-linejoin="round" width="3.375" height="113.025"/>
		
			<rect x="285.129" y="36" fill="none" stroke="#000000" stroke-linecap="round" stroke-linejoin="round" width="19.259" height="510.256"/>
	</g>
</g>
<g id="Model_Pieces::Major_Beams">
</g>
<g id="Model_Pieces::Main_Frame">
	<g>
		<g>
			
				<rect x="388.886" y="719.397" fill="none" stroke="#000000" stroke-linecap="round" stroke-linejoin="round" width="180.659" height="3.375"/>
			
				<rect x="966.846" y="796.579" fill="none" stroke="#000000" stroke-linecap="round" stroke-linejoin="round" width="113.025" height="3.375"/>
			
				<rect x="766.544" y="668.295" transform="matrix(-0.2891 0.9573 -0.9573 -0.2891 1718.865 245.6241)" fill="none" stroke="#000000" stroke-linecap="round" stroke-linejoin="round" width="3.375" height="185.482"/>
			
				<rect x="229.54" y="615.597" transform="matrix(-0.2474 0.9689 -0.9689 -0.2474 966.7557 649.2226)" fill="none" stroke="#000000" stroke-linecap="round" stroke-linejoin="round" width="3.375" height="168.98"/>
			<polygon fill="none" stroke="#000000" stroke-linecap="round" stroke-linejoin="round" points="1115.871,788.638 
				1115.871,807.896 930.846,807.896 930.846,813.987 891.471,813.987 891.471,807.896 644.991,733.433 644.991,736.835 
				605.615,736.835 605.615,730.714 352.886,730.714 352.886,736.835 313.512,736.835 313.512,730.714 132.62,684.304 
				109.95,684.304 109.95,652.804 149.325,652.804 149.325,669.556 313.512,711.456 313.512,705.335 352.886,705.335 
				352.886,711.456 605.615,711.456 605.615,705.335 644.991,705.335 644.991,714.175 891.471,788.638 891.471,782.487 
				930.846,782.487 930.846,788.638 			"/>
			<polygon fill="none" stroke="#000000" stroke-linecap="round" stroke-linejoin="round" points="900.472,804.987 903.846,804.987 
				903.846,799.925 918.472,799.925 918.472,804.987 921.846,804.987 921.846,791.487 918.472,791.487 918.472,796.55 
				903.846,796.55 903.846,791.487 900.472,791.487 			"/>
			<polygon fill="none" stroke="#000000" stroke-linecap="round" stroke-linejoin="round" points="614.616,727.835 617.991,727.835 
				617.991,722.772 632.616,722.772 632.616,727.835 635.991,727.835 635.991,714.335 632.616,714.335 632.616,719.397 
				617.991,719.397 617.991,714.335 614.616,714.335 			"/>
			<polygon fill="none" stroke="#000000" stroke-linecap="round" stroke-linejoin="round" points="322.512,727.835 325.887,727.835 
				325.887,722.772 340.512,722.772 340.512,727.835 343.887,727.835 343.887,714.335 340.512,714.335 340.512,719.397 
				325.887,719.397 325.887,714.335 322.512,714.335 			"/>
		</g>
		<polygon fill="none" stroke="#000000" stroke-linecap="round" stroke-linejoin="round" points="118.95,675.304 122.325,675.304 
			122.325,670.241 136.95,670.241 136.95,675.304 140.325,675.304 140.325,661.804 136.95,661.804 136.95,666.866 122.325,666.866 
			122.325,661.804 118.95,661.804 		"/>
	</g>
	<g>
		<g>
			
				<rect x="388.886" y="770.397" fill="none" stroke="#000000" stroke-linecap="round" stroke-linejoin="round" width="180.659" height="3.375"/>
			
				<rect x="966.846" y="847.579" fill="none" stroke="#000000" stroke-linecap="round" stroke-linejoin="round" width="113.025" height="3.375"/>
			
				<rect x="766.544" y="719.295" transform="matrix(-0.2891 0.9573 -0.9573 -0.2891 1767.6873 311.3682)" fill="none" stroke="#000000" stroke-linecap="round" stroke-linejoin="round" width="3.375" height="185.482"/>
			
				<rect x="229.54" y="666.597" transform="matrix(-0.2474 0.9689 -0.9689 -0.2474 1016.1707 712.8383)" fill="none" stroke="#000000" stroke-linecap="round" stroke-linejoin="round" width="3.375" height="168.98"/>
			<polygon fill="none" stroke="#000000" stroke-linecap="round" stroke-linejoin="round" points="1115.871,839.638 
				1115.871,858.896 930.846,858.896 930.846,864.987 891.471,864.987 891.471,858.896 644.991,784.433 644.991,787.835 
				605.615,787.835 605.615,781.714 352.886,781.714 352.886,787.835 313.512,787.835 313.512,781.714 132.62,735.304 
				109.95,735.304 109.95,703.804 149.325,703.804 149.325,720.556 313.512,762.456 313.512,756.335 352.886,756.335 
				352.886,762.456 605.615,762.456 605.615,756.335 644.991,756.335 644.991,765.175 891.471,839.638 891.471,833.487 
				930.846,833.487 930.846,839.638 			"/>
			<polygon fill="none" stroke="#000000" stroke-linecap="round" stroke-linejoin="round" points="900.472,855.987 903.846,855.987 
				903.846,850.925 918.472,850.925 918.472,855.987 921.846,855.987 921.846,842.487 918.472,842.487 918.472,847.55 
				903.846,847.55 903.846,842.487 900.472,842.487 			"/>
			<polygon fill="none" stroke="#000000" stroke-linecap="round" stroke-linejoin="round" points="614.616,778.835 617.991,778.835 
				617.991,773.772 632.616,773.772 632.616,778.835 635.991,778.835 635.991,765.335 632.616,765.335 632.616,770.397 
				617.991,770.397 617.991,765.335 614.616,765.335 			"/>
			<polygon fill="none" stroke="#000000" stroke-linecap="round" stroke-linejoin="round" points="322.512,778.835 325.887,778.835 
				325.887,773.772 340.512,773.772 340.512,778.835 343.887,778.835 343.887,765.335 340.512,765.335 340.512,770.397 
				325.887,770.397 325.887,765.335 322.512,765.335 			"/>
		</g>
		<polygon fill="none" stroke="#000000" stroke-linecap="round" stroke-linejoin="round" points="118.95,726.304 122.325,726.304 
			122.325,721.241 136.95,721.241 136.95,726.304 140.325,726.304 140.325,712.804 136.95,712.804 136.95,717.866 122.325,717.866 
			122.325,712.804 118.95,712.804 		"/>
	</g>
	<g>
		<g>
			
				<rect x="388.886" y="821.397" fill="none" stroke="#000000" stroke-linecap="round" stroke-linejoin="round" width="180.659" height="3.375"/>
			
				<rect x="966.846" y="898.579" fill="none" stroke="#000000" stroke-linecap="round" stroke-linejoin="round" width="113.025" height="3.375"/>
			
				<rect x="766.544" y="770.295" transform="matrix(-0.2891 0.9573 -0.9573 -0.2891 1816.5095 377.1123)" fill="none" stroke="#000000" stroke-linecap="round" stroke-linejoin="round" width="3.375" height="185.482"/>
			
				<rect x="229.54" y="717.597" transform="matrix(-0.2474 0.9689 -0.9689 -0.2474 1065.5857 776.4539)" fill="none" stroke="#000000" stroke-linecap="round" stroke-linejoin="round" width="3.375" height="168.98"/>
			<polygon fill="none" stroke="#000000" stroke-linecap="round" stroke-linejoin="round" points="1115.871,890.638 
				1115.871,909.896 930.846,909.896 930.846,915.987 891.471,915.987 891.471,909.896 644.991,835.433 644.991,838.835 
				605.615,838.835 605.615,832.714 352.886,832.714 352.886,838.835 313.512,838.835 313.512,832.714 132.62,786.304 
				109.95,786.304 109.95,754.804 149.325,754.804 149.325,771.556 313.512,813.456 313.512,807.335 352.886,807.335 
				352.886,813.456 605.615,813.456 605.615,807.335 644.991,807.335 644.991,816.175 891.471,890.638 891.471,884.487 
				930.846,884.487 930.846,890.638 			"/>
			<polygon fill="none" stroke="#000000" stroke-linecap="round" stroke-linejoin="round" points="900.472,906.987 903.846,906.987 
				903.846,901.925 918.472,901.925 918.472,906.987 921.846,906.987 921.846,893.487 918.472,893.487 918.472,898.55 
				903.846,898.55 903.846,893.487 900.472,893.487 			"/>
			<polygon fill="none" stroke="#000000" stroke-linecap="round" stroke-linejoin="round" points="614.616,829.835 617.991,829.835 
				617.991,824.772 632.616,824.772 632.616,829.835 635.991,829.835 635.991,816.335 632.616,816.335 632.616,821.397 
				617.991,821.397 617.991,816.335 614.616,816.335 			"/>
			<polygon fill="none" stroke="#000000" stroke-linecap="round" stroke-linejoin="round" points="322.512,829.835 325.887,829.835 
				325.887,824.772 340.512,824.772 340.512,829.835 343.887,829.835 343.887,816.335 340.512,816.335 340.512,821.397 
				325.887,821.397 325.887,816.335 322.512,816.335 			"/>
		</g>
		<polygon fill="none" stroke="#000000" stroke-linecap="round" stroke-linejoin="round" points="118.95,777.304 122.325,777.304 
			122.325,772.241 136.95,772.241 136.95,777.304 140.325,777.304 140.325,763.804 136.95,763.804 136.95,768.866 122.325,768.866 
			122.325,763.804 118.95,763.804 		"/>
	</g>
	<g>
		<g>
			
				<rect x="388.886" y="872.397" fill="none" stroke="#000000" stroke-linecap="round" stroke-linejoin="round" width="180.659" height="3.375"/>
			
				<rect x="966.846" y="949.579" fill="none" stroke="#000000" stroke-linecap="round" stroke-linejoin="round" width="113.025" height="3.375"/>
			
				<rect x="766.544" y="821.295" transform="matrix(-0.2891 0.9573 -0.9573 -0.2891 1865.3318 442.8564)" fill="none" stroke="#000000" stroke-linecap="round" stroke-linejoin="round" width="3.375" height="185.482"/>
			
				<rect x="229.54" y="768.597" transform="matrix(-0.2474 0.9689 -0.9689 -0.2474 1115.0007 840.0696)" fill="none" stroke="#000000" stroke-linecap="round" stroke-linejoin="round" width="3.375" height="168.98"/>
			<polygon fill="none" stroke="#000000" stroke-linecap="round" stroke-linejoin="round" points="1115.871,941.638 
				1115.871,960.896 930.846,960.896 930.846,966.987 891.471,966.987 891.471,960.896 644.991,886.433 644.991,889.835 
				605.615,889.835 605.615,883.714 352.886,883.714 352.886,889.835 313.512,889.835 313.512,883.714 132.62,837.304 
				109.95,837.304 109.95,805.804 149.325,805.804 149.325,822.556 313.512,864.456 313.512,858.335 352.886,858.335 
				352.886,864.456 605.615,864.456 605.615,858.335 644.991,858.335 644.991,867.175 891.471,941.638 891.471,935.487 
				930.846,935.487 930.846,941.638 			"/>
			<polygon fill="none" stroke="#000000" stroke-linecap="round" stroke-linejoin="round" points="900.472,957.987 903.846,957.987 
				903.846,952.925 918.472,952.925 918.472,957.987 921.846,957.987 921.846,944.487 918.472,944.487 918.472,949.55 
				903.846,949.55 903.846,944.487 900.472,944.487 			"/>
			<polygon fill="none" stroke="#000000" stroke-linecap="round" stroke-linejoin="round" points="614.616,880.835 617.991,880.835 
				617.991,875.772 632.616,875.772 632.616,880.835 635.991,880.835 635.991,867.335 632.616,867.335 632.616,872.397 
				617.991,872.397 617.991,867.335 614.616,867.335 			"/>
			<polygon fill="none" stroke="#000000" stroke-linecap="round" stroke-linejoin="round" points="322.512,880.835 325.887,880.835 
				325.887,875.772 340.512,875.772 340.512,880.835 343.887,880.835 343.887,867.335 340.512,867.335 340.512,872.397 
				325.887,872.397 325.887,867.335 322.512,867.335 			"/>
		</g>
		<polygon fill="none" stroke="#000000" stroke-linecap="round" stroke-linejoin="round" points="118.95,828.304 122.325,828.304 
			122.325,823.241 136.95,823.241 136.95,828.304 140.325,828.304 140.325,814.804 136.95,814.804 136.95,819.866 122.325,819.866 
			122.325,814.804 118.95,814.804 		"/>
	</g>
	<g>
		<g>
			
				<rect x="388.886" y="923.397" fill="none" stroke="#000000" stroke-linecap="round" stroke-linejoin="round" width="180.659" height="3.375"/>
			
				<rect x="966.846" y="1000.579" fill="none" stroke="#000000" stroke-linecap="round" stroke-linejoin="round" width="113.025" height="3.375"/>
			
				<rect x="766.544" y="872.295" transform="matrix(-0.2891 0.9573 -0.9573 -0.2891 1914.1539 508.6005)" fill="none" stroke="#000000" stroke-linecap="round" stroke-linejoin="round" width="3.375" height="185.482"/>
			
				<rect x="229.54" y="819.597" transform="matrix(-0.2474 0.9689 -0.9689 -0.2474 1164.4158 903.6852)" fill="none" stroke="#000000" stroke-linecap="round" stroke-linejoin="round" width="3.375" height="168.98"/>
			<polygon fill="none" stroke="#000000" stroke-linecap="round" stroke-linejoin="round" points="1115.871,992.638 
				1115.871,1011.896 930.846,1011.896 930.846,1017.987 891.471,1017.987 891.471,1011.896 644.991,937.433 644.991,940.835 
				605.615,940.835 605.615,934.714 352.886,934.714 352.886,940.835 313.512,940.835 313.512,934.714 132.62,888.304 
				109.95,888.304 109.95,856.804 149.325,856.804 149.325,873.556 313.512,915.456 313.512,909.335 352.886,909.335 
				352.886,915.456 605.615,915.456 605.615,909.335 644.991,909.335 644.991,918.175 891.471,992.638 891.471,986.487 
				930.846,986.487 930.846,992.638 			"/>
			<polygon fill="none" stroke="#000000" stroke-linecap="round" stroke-linejoin="round" points="900.472,1008.987 
				903.846,1008.987 903.846,1003.925 918.472,1003.925 918.472,1008.987 921.846,1008.987 921.846,995.487 918.472,995.487 
				918.472,1000.55 903.846,1000.55 903.846,995.487 900.472,995.487 			"/>
			<polygon fill="none" stroke="#000000" stroke-linecap="round" stroke-linejoin="round" points="614.616,931.835 617.991,931.835 
				617.991,926.772 632.616,926.772 632.616,931.835 635.991,931.835 635.991,918.335 632.616,918.335 632.616,923.397 
				617.991,923.397 617.991,918.335 614.616,918.335 			"/>
			<polygon fill="none" stroke="#000000" stroke-linecap="round" stroke-linejoin="round" points="322.512,931.835 325.887,931.835 
				325.887,926.772 340.512,926.772 340.512,931.835 343.887,931.835 343.887,918.335 340.512,918.335 340.512,923.397 
				325.887,923.397 325.887,918.335 322.512,918.335 			"/>
		</g>
		<polygon fill="none" stroke="#000000" stroke-linecap="round" stroke-linejoin="round" points="118.95,879.304 122.325,879.304 
			122.325,874.241 136.95,874.241 136.95,879.304 140.325,879.304 140.325,865.804 136.95,865.804 136.95,870.866 122.325,870.866 
			122.325,865.804 118.95,865.804 		"/>
	</g>
	<g>
		<g>
			
				<rect x="388.886" y="974.397" fill="none" stroke="#000000" stroke-linecap="round" stroke-linejoin="round" width="180.659" height="3.375"/>
			
				<rect x="966.846" y="1051.579" fill="none" stroke="#000000" stroke-linecap="round" stroke-linejoin="round" width="113.025" height="3.375"/>
			
				<rect x="766.544" y="923.295" transform="matrix(-0.2891 0.9573 -0.9573 -0.2891 1962.9762 574.3445)" fill="none" stroke="#000000" stroke-linecap="round" stroke-linejoin="round" width="3.375" height="185.482"/>
			
				<rect x="229.54" y="870.597" transform="matrix(-0.2474 0.9689 -0.9689 -0.2474 1213.8308 967.3009)" fill="none" stroke="#000000" stroke-linecap="round" stroke-linejoin="round" width="3.375" height="168.98"/>
			<polygon fill="none" stroke="#000000" stroke-linecap="round" stroke-linejoin="round" points="1115.871,1043.638 
				1115.871,1062.896 930.846,1062.896 930.846,1068.987 891.471,1068.987 891.471,1062.896 644.991,988.433 644.991,991.835 
				605.615,991.835 605.615,985.714 352.886,985.714 352.886,991.835 313.512,991.835 313.512,985.714 132.62,939.304 
				109.95,939.304 109.95,907.804 149.325,907.804 149.325,924.556 313.512,966.456 313.512,960.335 352.886,960.335 
				352.886,966.456 605.615,966.456 605.615,960.335 644.991,960.335 644.991,969.175 891.471,1043.638 891.471,1037.487 
				930.846,1037.487 930.846,1043.638 			"/>
			<polygon fill="none" stroke="#000000" stroke-linecap="round" stroke-linejoin="round" points="900.472,1059.987 
				903.846,1059.987 903.846,1054.925 918.472,1054.925 918.472,1059.987 921.846,1059.987 921.846,1046.487 918.472,1046.487 
				918.472,1051.55 903.846,1051.55 903.846,1046.487 900.472,1046.487 			"/>
			<polygon fill="none" stroke="#000000" stroke-linecap="round" stroke-linejoin="round" points="614.616,982.835 617.991,982.835 
				617.991,977.772 632.616,977.772 632.616,982.835 635.991,982.835 635.991,969.335 632.616,969.335 632.616,974.397 
				617.991,974.397 617.991,969.335 614.616,969.335 			"/>
			<polygon fill="none" stroke="#000000" stroke-linecap="round" stroke-linejoin="round" points="322.512,982.835 325.887,982.835 
				325.887,977.772 340.512,977.772 340.512,982.835 343.887,982.835 343.887,969.335 340.512,969.335 340.512,974.397 
				325.887,974.397 325.887,969.335 322.512,969.335 			"/>
		</g>
		<polygon fill="none" stroke="#000000" stroke-linecap="round" stroke-linejoin="round" points="118.95,930.304 122.325,930.304 
			122.325,925.241 136.95,925.241 136.95,930.304 140.325,930.304 140.325,916.804 136.95,916.804 136.95,921.866 122.325,921.866 
			122.325,916.804 118.95,916.804 		"/>
	</g>
</g>
<g id="spliff">
	<g>
		<polygon fill="none" stroke="#000000" stroke-linecap="round" stroke-linejoin="round" points="965.29,483.625 961.915,483.625 
			961.915,472.375 957.634,472.375 957.634,469 969.618,469 969.618,472.375 965.29,472.375 		"/>
		<polygon fill="none" stroke="#000000" stroke-linecap="round" stroke-linejoin="round" points="813.176,483.625 809.801,483.625 
			809.801,472.375 805.52,472.375 805.52,469 817.503,469 817.503,472.375 813.176,472.375 		"/>
		<polygon fill="none" stroke="#000000" stroke-linecap="round" stroke-linejoin="round" points="661.039,483.625 657.664,483.625 
			657.664,472.375 653.383,472.375 653.383,469 665.367,469 665.367,472.375 661.039,472.375 		"/>
		<polygon fill="none" stroke="#000000" stroke-linecap="round" stroke-linejoin="round" points="508.902,483.625 505.527,483.625 
			505.527,472.375 501.246,472.375 501.246,469 513.23,469 513.23,472.375 508.902,472.375 		"/>
		<polygon fill="none" stroke="#000000" stroke-linecap="round" stroke-linejoin="round" points="621.341,487 621.341,483.625 
			545.272,483.625 545.272,487 469.204,487 469.204,483.625 355.103,483.625 355.103,469 469.204,469 469.204,465.625 
			545.272,465.625 545.272,469 621.341,469 621.341,465.625 697.409,465.625 697.409,469 773.478,469 773.478,465.625 
			849.546,465.625 849.546,469 925.613,469 925.613,465.625 1001.683,465.625 1001.683,469 1115.868,469 1115.868,483.625 
			1001.683,483.625 1001.683,487 925.613,487 925.613,483.625 849.546,483.625 849.546,487 773.478,487 773.478,483.625 
			697.409,483.625 697.409,487 		"/>
	</g>
	<g>
		
			<rect x="355.103" y="502" fill="none" stroke="#000000" stroke-linecap="round" stroke-linejoin="round" width="760.766" height="13.5"/>
		
			<rect x="925.613" y="507.062" fill="none" stroke="#000000" stroke-linecap="round" stroke-linejoin="round" width="76.069" height="3.375"/>
		
			<rect x="773.478" y="507.062" fill="none" stroke="#000000" stroke-linecap="round" stroke-linejoin="round" width="76.068" height="3.375"/>
		
			<rect x="621.341" y="507.062" fill="none" stroke="#000000" stroke-linecap="round" stroke-linejoin="round" width="76.068" height="3.375"/>
		
			<rect x="469.204" y="507.062" fill="none" stroke="#000000" stroke-linecap="round" stroke-linejoin="round" width="76.068" height="3.375"/>
	</g>
	<g>
		<polygon fill="none" stroke="#000000" stroke-linecap="round" stroke-linejoin="round" points="965.29,553.625 961.915,553.625 
			961.915,542.375 957.634,542.375 957.634,539 969.618,539 969.618,542.375 965.29,542.375 		"/>
		<polygon fill="none" stroke="#000000" stroke-linecap="round" stroke-linejoin="round" points="813.176,553.625 809.801,553.625 
			809.801,542.375 805.52,542.375 805.52,539 817.503,539 817.503,542.375 813.176,542.375 		"/>
		<polygon fill="none" stroke="#000000" stroke-linecap="round" stroke-linejoin="round" points="661.039,553.625 657.664,553.625 
			657.664,542.375 653.383,542.375 653.383,539 665.367,539 665.367,542.375 661.039,542.375 		"/>
		<polygon fill="none" stroke="#000000" stroke-linecap="round" stroke-linejoin="round" points="508.902,553.625 505.527,553.625 
			505.527,542.375 501.246,542.375 501.246,539 513.23,539 513.23,542.375 508.902,542.375 		"/>
		<polygon fill="none" stroke="#000000" stroke-linecap="round" stroke-linejoin="round" points="621.341,557 621.341,553.625 
			545.272,553.625 545.272,557 469.204,557 469.204,553.625 355.103,553.625 355.103,539 469.204,539 469.204,535.625 
			545.272,535.625 545.272,539 621.341,539 621.341,535.625 697.409,535.625 697.409,539 773.478,539 773.478,535.625 
			849.546,535.625 849.546,539 925.613,539 925.613,535.625 1001.683,535.625 1001.683,539 1115.868,539 1115.868,553.625 
			1001.683,553.625 1001.683,557 925.613,557 925.613,553.625 849.546,553.625 849.546,557 773.478,557 773.478,553.625 
			697.409,553.625 697.409,557 		"/>
	</g>
	<g>
		
			<rect x="355.103" y="572" fill="none" stroke="#000000" stroke-linecap="round" stroke-linejoin="round" width="760.766" height="13.5"/>
		
			<rect x="925.613" y="577.062" fill="none" stroke="#000000" stroke-linecap="round" stroke-linejoin="round" width="76.069" height="3.375"/>
		
			<rect x="773.478" y="577.062" fill="none" stroke="#000000" stroke-linecap="round" stroke-linejoin="round" width="76.068" height="3.375"/>
		
			<rect x="621.341" y="577.062" fill="none" stroke="#000000" stroke-linecap="round" stroke-linejoin="round" width="76.068" height="3.375"/>
		
			<rect x="469.204" y="577.062" fill="none" stroke="#000000" stroke-linecap="round" stroke-linejoin="round" width="76.068" height="3.375"/>
	</g>
</g>
</svg>
